<?xml version="1.0" encoding="UTF-8"?>
<svg width="48px" height="48px" viewBox="0 0 48 48" version="1.1" xmlns="http://www.w3.org/2000/svg" xmlns:xlink="http://www.w3.org/1999/xlink">
    <!-- Generator: Sketch 49 (51002) - http://www.bohemiancoding.com/sketch -->
    <title>xxxhdpi/检修信息</title>
    <desc>Created with Sketch.</desc>
    <defs></defs>
    <g id="Page-1" stroke="none" stroke-width="1" fill="none" fill-rule="evenodd">
        <g id="检修-(1)-copy-3">
            <path d="M21.8558896,18.7118262 L14.6421307,11.4134085 L16.3486485,9.69036553 L6.77414888,0 L0,6.8571506 L9.57449965,16.544014 L11.277556,14.8174689 L18.4878534,22.1158866 L21.8558896,18.7118262 Z M45.577526,42.7118533 C46.553668,41.1919333 45.5325265,38.0365233 45.5325265,38.0365233 L34.4868908,26.861259 C28.166198,27.3655643 24.4347046,35.5044907 24.4347046,35.5044907 C24.4347046,35.5044907 34.3726614,45.9688247 36.0618718,47.2681112 C37.7510821,48.5673976 40.6068168,47.7408974 40.6068168,47.7408974 C40.6068168,47.7408974 44.6013839,44.2282712 45.577526,42.7118533 Z" id="Shape" fill="#6ED3C6" fill-rule="nonzero"></path>
            <path d="M37.0518598,45.0057418 L28.0381226,35.8862218 C27.5188981,35.367908 27.5188981,34.5168929 28.0346611,33.9950771 C28.5469626,33.4767633 29.3915678,33.4767633 29.9038693,33.9950771 L38.9176065,43.1145971 C39.429908,43.6329108 39.429908,44.487428 38.9176065,45.0057418 C38.405305,45.5275576 37.5676228,45.5275576 37.0518598,45.0057418 Z" id="Path" fill="#FFFFFF"></path>
            <path d="M41.1398873,40.8697383 L32.1261501,31.7502183 C31.6138486,31.2284024 31.6138486,30.3738852 32.1261501,29.8590736 C32.6419131,29.3337556 33.4795953,29.3337556 33.9953583,29.8590736 L43.0090955,38.9785936 C43.521397,39.4969073 43.521397,40.3479224 43.0090955,40.8732404 C42.489871,41.3950562 41.6556503,41.3915541 41.1398873,40.8697383 Z" id="Path" fill="#FFFFFF"></path>
            <path d="M17.3630583,37.3172272 C17.3835635,37.1299729 17.4314091,36.9497847 17.5168475,36.8296593 C17.7629103,36.4940147 26.0846156,26.2056245 32.0242968,24.6863911 C36.2483739,26.0854991 41.0636851,25.0573667 44.4197075,21.5913946 C47.2118362,18.704851 48.366964,14.7689765 47.8987613,11.0132901 L39.4301019,20.1534224 L30.9272671,18.6801193 L28.2479172,10.7412413 L37.6153891,0.145471349 C33.9005252,-0.441023421 29.9771915,0.746098523 27.1167121,3.70330408 C23.5556374,7.38126225 22.6499898,12.758642 24.3860991,17.305743 C23.9930822,19.263081 22.7901088,22.0577639 19.6186334,25.5555339 L13.0569603,32.7877917 C13.0569603,32.7877917 12.9886095,32.8796523 12.8416554,32.971513 C10.2409089,32.0705722 7.2573981,32.6817987 5.18637001,34.8193248 C2.27121,37.83306 2.27121,42.7264049 5.18637001,45.7401401 C8.10153002,48.7538752 12.8279852,48.7538752 15.7465628,45.736607 C17.9508749,43.4577568 18.4840108,40.1154432 17.3630583,37.3172272 Z M7.50346085,43.6096801 C5.81861456,41.8713944 5.81861456,39.0449136 7.50346085,37.3030948 C9.18830713,35.5648091 11.9189201,35.5648091 13.6003488,37.3066279 C15.2817776,39.0484467 15.2851951,41.8713944 13.6003488,43.6096801 C11.9189201,45.351499 9.18830713,45.351499 7.50346085,43.6096801 Z" id="Shape" fill="#6ED3C6" fill-rule="nonzero"></path>
        </g>
    </g>
</svg>