<?xml version="1.0" encoding="UTF-8"?>
<svg width="46px" height="48px" viewBox="0 0 46 48" version="1.1" xmlns="http://www.w3.org/2000/svg" xmlns:xlink="http://www.w3.org/1999/xlink">
    <!-- Generator: Sketch 49 (51002) - http://www.bohemiancoding.com/sketch -->
    <title>xxxhdpi/报废审批</title>
    <desc>Created with Sketch.</desc>
    <defs></defs>
    <g id="Page-1" stroke="none" stroke-width="1" fill="none" fill-rule="evenodd">
        <g id="报废审批" fill="#E35656" fill-rule="nonzero">
            <path d="M28.4627797,39.999216 C28.4676458,35.1944866 32.6964175,31.3018605 37.9111883,31.3018626 L38.0463755,31.3018626 L38.5547968,11.6245067 C38.5666665,11.1799133 38.383451,10.7496942 38.0465975,10.4311734 C37.709744,10.1126527 37.2477169,9.93274578 36.7650361,9.9321512 L4.52877063,9.9321512 C4.04402337,9.93124553 3.57954019,10.1112503 3.24122963,10.431122 C2.90291907,10.7509936 2.71962183,11.1834634 2.73313219,11.6299222 L3.52662218,41.4289179 C3.57741497,43.2161513 5.15986409,44.6429971 7.10026597,44.6511628 L29.9322056,44.6511628 C28.9710682,43.2612984 28.4612263,41.6472277 28.4627797,39.999216 Z M23.3315445,35.5611829 L17.947568,35.5611829 L17.947568,29.785512 L11.6701805,29.785512 L11.6701805,24.8140485 L17.947568,24.8140485 L17.947568,19.0275466 L23.3315445,19.0275466 L23.3315445,24.8140485 L29.6118708,24.8140485 L29.6118708,29.785512 L23.3315445,29.785512 L23.3315445,35.5611829 Z M41.2820513,5.59972109 C41.2812726,5.21623148 41.1151839,4.84873371 40.8203229,4.57807342 C40.525462,4.30741313 40.1259825,4.15576152 39.7097656,4.15648034 L30.5816919,4.15648034 L28.5627007,1.1995968 C28.0359021,0.446741084 27.127963,-0.00575044136 26.1557811,5.51989386e-05 L15.1145148,5.51989386e-05 C14.1475433,-0.00112406828 13.2462737,0.450802586 12.7222895,1.1995968 L10.7003594,4.15648034 L1.57228571,4.15648034 C1.15606883,4.15576152 0.756589263,4.30741313 0.461728336,4.57807342 C0.166867409,4.84873371 0.000778705675,5.21623148 0,5.59972109 L0,7.46266605 L41.2820513,7.46266605 L41.2820513,5.59972109 Z M12.8868652,4.13481819 L14.2769421,2.10399158 C14.4625529,1.84572068 14.7783696,1.69257122 15.1145148,1.69782626 L26.1557811,1.69782626 C26.4919263,1.69257122 26.8077431,1.84572068 26.9933538,2.10399158 L28.3834307,4.13481819 L12.8868652,4.13481819 Z" id="Shape"></path>
            <path d="M37.7437104,32.372093 C34.404353,32.372093 31.3938102,34.2758739 30.1158934,37.1957055 C28.8379767,40.1155371 29.5443498,43.4764087 31.9056321,45.7111511 C34.2669144,47.9458935 37.8180917,48.6144124 40.9032557,47.4049785 C43.9884197,46.1955446 46,43.3463352 46,40.1859323 C45.9983198,35.8711268 42.3028371,32.3736831 37.7437104,32.372093 Z M40.8641739,43.87388 L34.623247,43.87388 L34.623247,43.1305281 L40.8641739,43.1305281 L40.8641739,43.87388 Z M41.2447182,42.7646145 L34.2427027,42.7646145 L34.2427027,41.8426276 C34.2443741,41.3340849 34.6795578,40.9222224 35.2168961,40.9206406 L36.9674,40.9206406 L36.9674,40.030347 C36.1235918,39.6793789 35.655077,38.8168392 35.8445439,37.9631591 C36.0340107,37.1094791 36.8296188,36.4982359 37.7513213,36.4982359 C38.6730238,36.4982359 39.4686319,37.1094791 39.6580988,37.9631591 C39.8475656,38.8168392 39.3790508,39.6793789 38.5352426,40.030347 L38.5200209,40.9292842 L40.2796578,40.9292842 C40.538278,40.9285158 40.78654,41.0254066 40.969413,41.1984795 C41.1522861,41.3715525 41.2546632,41.6065102 41.2538512,41.8512712 L41.2447182,42.7646145 Z" id="Shape"></path>
        </g>
    </g>
</svg>