<?xml version="1.0" encoding="UTF-8"?>
<svg width="48px" height="48px" viewBox="0 0 48 48" version="1.1" xmlns="http://www.w3.org/2000/svg" xmlns:xlink="http://www.w3.org/1999/xlink">
    <!-- Generator: Sketch 49 (51002) - http://www.bohemiancoding.com/sketch -->
    <title>xxxhdpi/点检计划</title>
    <desc>Created with Sketch.</desc>
    <defs></defs>
    <g id="Page-1" stroke="none" stroke-width="1" fill="none" fill-rule="evenodd">
        <g id="计划-copy-3">
            <path d="M30.8420873,8.91934917 C30.5011403,8.91934917 30.2032202,8.80733945 29.9483269,8.58332001 C29.6934336,8.35930058 29.4804779,8.08771537 29.3094598,7.7685644 C29.1384416,7.44941342 29.010995,7.12156762 28.9271199,6.78502701 C28.8432447,6.4484864 28.8007625,6.16871783 28.7996732,5.94572132 L28.7996732,0 L28.9026109,0 C29.1749328,0 29.455969,0.0398938721 29.7457194,0.119681616 C30.0354699,0.19946936 30.3758723,0.35137295 30.7669265,0.575392386 C31.1579807,0.799411821 31.634544,1.12725762 32.1966164,1.55892977 C32.7586888,1.99060192 33.4650917,2.55781095 34.3158253,3.26055685 C35.235184,4.0277467 35.9584709,4.68292683 36.4856861,5.22609724 C37.0129012,5.76926765 37.4213841,6.22497842 37.7111346,6.59322955 C38.000885,6.96148068 38.1795282,7.27295975 38.247064,7.52766678 C38.3145999,7.78237381 38.3489124,8.00639325 38.3500017,8.19972509 L38.3500017,8.91934917 L30.8437213,8.91934917 L30.8420873,8.91934917 Z M22.1626442,36.6824154 L22.1626442,37.4020394 C22.1626442,38.8402647 22.3837696,40.1987022 22.8260204,41.4773519 C23.2682711,42.7560017 23.8809953,43.9548637 24.6641931,45.0739379 L6.58801103,45.0739379 C5.94097423,45.0739379 5.23457126,44.8979957 4.46880212,44.5461113 C3.70303299,44.1942269 2.98791572,43.7308442 2.32345032,43.1559633 C1.65898492,42.5810824 1.10562685,41.9259022 0.663376111,41.1904229 C0.221125371,40.4549436 6.3825515e-10,39.6877537 0,38.8888534 L0,6.18661893 C0,5.51558354 0.1704735,4.82050954 0.511420499,4.10139692 C0.852367499,3.38228431 1.29516288,2.71892082 1.83980665,2.11130646 C2.38445042,1.5036921 3.01405862,1.00041556 3.72863124,0.60147684 C4.44320387,0.20253812 5.19208905,0.00255729954 5.97528679,0.00153437955 L25.5318106,0.00153437955 L25.5318106,5.99482147 C25.5318106,6.63414634 25.6342036,7.29750983 25.8389897,7.98491193 C26.0437757,8.67231404 26.3672941,9.31982227 26.8095449,9.92743663 C27.2517956,10.535051 27.8133233,11.0306556 28.4941281,11.4142506 C29.1749328,11.7978455 29.9750145,11.9896429 30.8943731,11.9896429 L38.3500017,11.9896429 L38.3500017,23.9286513 C38.0776798,23.8642074 37.788474,23.8319854 37.4823842,23.8319854 L36.5624809,23.8319854 C34.0091909,23.8319854 31.6775709,24.3915226 29.5676209,25.5105968 C27.457671,26.6296711 25.7556592,28.1323402 24.4615856,30.0186044 L9.60261429,30.0186044 C8.71702352,30.0186044 7.95942404,30.3065563 7.32981584,30.8824601 C6.70020765,31.458364 6.38540355,32.1616213 6.38540355,32.9922322 C6.38540355,33.8228431 6.70020765,34.5342838 7.32981584,35.1265544 C7.95942404,35.7188249 8.71702352,36.0144487 9.60261429,36.0134258 L22.21493,36.0134258 C22.1795282,36.2343765 22.1626442,36.4583959 22.1626442,36.6824154 Z" id="Shape" fill="#F5A623" fill-rule="nonzero"></path>
            <path d="M9.60098036,17.9813956 C8.71538959,17.9813956 7.95779011,18.2770195 7.32818191,18.8682671 C6.69857371,19.4595148 6.38376962,20.1709555 6.38376962,21.0025893 C6.38376962,21.8342231 6.69857371,22.5374804 7.32818191,23.1123613 C7.95779011,23.6872423 8.71538959,23.9751942 9.60098036,23.9762171 L28.7490213,23.9762171 C29.6346121,23.9762171 30.3834973,23.6882652 30.9956769,23.1123613 C31.6078565,22.5364575 31.9144909,21.8332001 31.9155802,21.0025893 C31.9166695,20.1719784 31.6100351,19.4605377 30.9956769,18.8682671 C30.3813187,18.2759965 29.6324335,17.9803727 28.7490213,17.9813956 L9.60098036,17.9813956 Z" id="Path" fill="#FFFFFF"></path>
            <path d="M36.7650883,26.8992104 C38.3314838,26.8992104 39.7954863,27.1707956 41.1570957,27.7139661 C42.5187051,28.2571365 43.7103857,29.0084711 44.7321374,29.9679698 C45.7538891,30.9274686 46.5539708,32.0465429 47.1323825,33.3251926 C47.7107942,34.6038423 48,35.9786465 48,37.4496052 C48,38.9205639 47.7107942,40.2953681 47.1323825,41.5740178 C46.5539708,42.8526676 45.7538891,43.9717418 44.7321374,44.9312406 C43.7103857,45.8907394 42.5187051,46.642074 41.1570957,47.1852444 C39.7954863,47.7284148 38.3314838,48 36.7650883,48 C35.2335501,48 33.7869762,47.7284148 32.4253668,47.1852444 C31.0637574,46.642074 29.8720768,45.8907394 28.8503251,44.9312406 C27.8285734,43.9717418 27.020322,42.8526676 26.425571,41.5740178 C25.83082,40.2953681 25.5328999,38.9205639 25.5318106,37.4496052 C25.5307213,35.9786465 25.8286415,34.6038423 26.425571,33.3251926 C27.0225006,32.0465429 27.8307519,30.9274686 28.8503251,29.9679698 C29.8698982,29.0084711 31.0615788,28.2571365 32.4253668,27.7139661 C33.7891548,27.1707956 35.2357286,26.8992104 36.7650883,26.8992104 Z" id="Path" fill="#FFAB54"></path>
            <path d="M43.147224,39.1266822 C43.4533138,39.1266822 43.7256357,38.9665953 43.9641897,38.6464214 C44.2027436,38.3262475 44.3220206,37.9426526 44.3220206,37.4956366 C44.3220206,37.0486207 44.2027436,36.6650257 43.9641897,36.3448518 C43.7256357,36.0246779 43.4533138,35.864591 43.147224,35.864591 L38.296082,35.864591 L38.296082,31.6450468 C38.296082,31.3893169 38.1512067,31.1652974 37.8614562,30.9729885 C37.5717058,30.7806796 37.1719372,30.6845251 36.6621507,30.6845251 C36.1523641,30.6845251 35.7694795,30.7806796 35.513497,30.9729885 C35.2575144,31.1652974 35.1300677,31.3893169 35.131157,31.6450468 L35.131157,36.9202442 C35.0625319,37.1759742 35.0282194,37.3677716 35.0282194,37.4956366 C35.0282194,37.9436755 35.1474963,38.3272704 35.3860503,38.6464214 C35.6246043,38.9655724 35.8969262,39.1256593 36.203016,39.1266822 L43.147224,39.1266822 Z" id="Path" fill="#FFFFFF"></path>
        </g>
    </g>
</svg>