<?xml version="1.0" encoding="UTF-8"?>
<svg width="48px" height="48px" viewBox="0 0 48 48" version="1.1" xmlns="http://www.w3.org/2000/svg" xmlns:xlink="http://www.w3.org/1999/xlink">
    <!-- Generator: Sketch 49 (51002) - http://www.bohemiancoding.com/sketch -->
    <title>xxxhdpi/给油脂计划</title>
    <desc>Created with Sketch.</desc>
    <defs></defs>
    <g id="Page-1" stroke="none" stroke-width="1" fill="none" fill-rule="evenodd">
        <g id="计划-(3)-copy">
            <path d="M46.2451613,43.6178344 C46.5955893,43.6178344 46.9316646,43.7323624 47.1794546,43.9362236 C47.4272446,44.1400848 47.5664516,44.4165799 47.5664516,44.7048832 L47.5664516,46.8789809 C47.5664516,47.4793414 46.9748898,47.9660297 46.2451613,47.9660297 L1.3212903,47.9660297 C0.970862326,47.9660297 0.634786968,47.8515017 0.38699697,47.6476405 C0.139206971,47.4437793 0,47.1672842 0,46.8789809 L0,44.7048832 C0,44.4165799 0.139206971,44.1400848 0.38699697,43.9362236 C0.634786968,43.7323624 0.970862326,43.6178344 1.3212903,43.6178344 L46.2451613,43.6178344 Z M18.6539768,0.00760932484 C19.1432867,0.00722388478 19.6231183,0.118616361 20.0400103,0.329375796 L46.7076129,13.8326964 C47.4893737,14.2283372 47.9656175,14.92937 47.9656175,15.6844841 C47.9656175,16.4395982 47.4893737,17.1406309 46.7076129,17.5362717 L21.1406451,30.4786752 L21.1406451,37.0955414 L39.6387097,37.0955414 C39.9891377,37.0955414 40.325213,37.2100694 40.573003,37.4139306 C40.820793,37.6177918 40.96,37.8942869 40.96,38.1825902 L40.96,40.3566879 C40.96,40.9570484 40.3684382,41.4437367 39.6387097,41.4437367 L7.92774194,41.4437367 C7.19801345,41.4437367 6.60645163,40.9570484 6.60645163,40.3566879 L6.60645163,38.1825902 C6.60645163,37.5822297 7.19801345,37.0955414 7.92774194,37.0955414 L15.8554839,37.0955414 L15.8554839,18.6157112 L16.0113961,18.6157112 L16.0113961,2.18170701 C16.0113961,0.980986012 17.1945198,0.00760932484 18.6539768,0.00760932484 Z" id="Shape" fill="#AE75C1" fill-rule="nonzero"></path>
            <polygon id="Path" fill="#FFFFFF" points="23.9369858 8.7456321 23.9369858 22.6208596 37.6404284 15.6836382 23.9369858 8.74484745"></polygon>
        </g>
    </g>
</svg>