<?xml version="1.0" encoding="UTF-8"?>
<svg width="48px" height="46px" viewBox="0 0 48 46" version="1.1" xmlns="http://www.w3.org/2000/svg" xmlns:xlink="http://www.w3.org/1999/xlink">
    <!-- Generator: Sketch 49 (51002) - http://www.bohemiancoding.com/sketch -->
    <title>xxxhdpi/备修结算</title>
    <desc>Created with Sketch.</desc>
    <defs></defs>
    <g id="Page-1" stroke="none" stroke-width="1" fill="none" fill-rule="evenodd">
        <g id="备修结算">
            <path d="M13.1894972,12.8793323 L25.0364389,12.8793323 L26.7294094,15.8249349 L26.7294094,44.9273177 L8.41971161,44.9273177 C3.08849156,44.9273177 0.209093421,40.3331606 0.0463448276,35.0979583 C-0.115440745,29.8627559 2.21696801,25.2621884 12.3439749,15.8249349 L13.1894972,12.8793323 Z M13.3166144,10.742515 C13.3166144,10.742515 5.6125392,1.12683726 10.4275862,0.0584285848 C10.4275862,0.0584285848 11.3905956,-0.0334545788 13.3878771,0.0370604371 C14.4279273,0.0744547186 15.6201329,-0.247136285 17.168652,1.12683726 C17.168652,1.12683726 19.0946709,3.26365455 21.0206897,1.12683726 C22.1618558,-0.139226988 23.4561404,0.130011976 24.8727273,0.0584285848 C25.8472928,0.00928180838 26.7987461,0.0584285848 27.7617555,0.0584285848 C31.5444564,0.0584285848 27.7617555,7.53728905 24.8727273,10.742515 L13.3166144,10.742515 Z" id="Shape" fill="#5E9BEF" fill-rule="nonzero"></path>
            <polygon id="Path" fill="#FFFFFF" points="13.4658809 23.2076385 17.3651059 31.0486896 14.2796238 31.0486896 14.2796238 33.1790964 18.1364765 33.1790964 18.1364765 34.247505 14.2796238 34.247505 14.2796238 36.3843223 18.1364765 36.3843223 18.1316614 39.5895482 21.0206897 39.5895482 21.0206897 36.3843223 24.8727273 36.3843223 24.8727273 34.247505 21.0206897 34.247505 21.0206897 33.1790964 24.8727273 33.1790964 24.8727273 31.0486896 21.467526 31.0486896 25.3657881 23.2076385 22.4825379 23.2076385 19.416316 29.9888282 16.3500941 23.2076385 13.4658809 23.2076385"></polygon>
            <path d="M28.7247649,21.430875 C28.7247649,20.2481466 29.5895473,19.2897841 30.6411536,19.2897841 L46.0685642,19.2897841 C47.1269116,19.2897841 47.984953,20.2406677 47.984953,21.430875 L47.984953,43.8589091 C47.986032,45.0360654 47.1295748,45.9929447 46.0685642,46 L30.6411536,46 C29.5828063,46 28.7247649,45.0491163 28.7247649,43.8589091 L28.7247649,21.430875 Z" id="Path" fill="#5E9BEF"></path>
            <path d="M30.6507837,33.1790964 C30.6507837,33.7731316 31.0822119,34.247505 31.6137931,34.247505 L45.0959248,34.247505 C45.630395,34.247505 46.0589342,33.7688579 46.0589342,33.1790964 C46.0589342,32.5850612 45.6275059,32.1106877 45.0959248,32.1106877 L31.6137931,32.1106877 C31.0793229,32.1106877 30.6507837,32.5893348 30.6507837,33.1790964 Z" id="Path" fill="#FFFFFF"></path>
            <path d="M30.6507837,38.5211395 C30.6507837,39.1151747 31.0822119,39.5895482 31.6137931,39.5895482 L45.0959248,39.5895482 C45.630395,39.5895482 46.0589342,39.1109011 46.0589342,38.5211395 C46.0589342,37.9271043 45.6275059,37.4527309 45.0959248,37.4527309 L31.6137931,37.4527309 C31.0793229,37.4527309 30.6507837,37.931378 30.6507837,38.5211395 Z" id="Path" fill="#FFFFFF"></path>
            <polygon id="Path" fill="#FFFFFF" points="30.6507837 21.4266014 30.6507837 27.8370531 46.0589342 27.8370531 46.0589342 21.4266014 30.6507837 21.4266014"></polygon>
        </g>
    </g>
</svg>