<?xml version="1.0" encoding="UTF-8"?>
<svg width="48px" height="48px" viewBox="0 0 48 48" version="1.1" xmlns="http://www.w3.org/2000/svg" xmlns:xlink="http://www.w3.org/1999/xlink">
    <!-- Generator: Sketch 49 (51002) - http://www.bohemiancoding.com/sketch -->
    <title>xxxhdpi/预付款查询</title>
    <desc>Created with Sketch.</desc>
    <defs></defs>
    <g id="Page-1" stroke="none" stroke-width="1" fill="none" fill-rule="evenodd">
        <g id="预付款查询">
            <path d="M44.5714286,26.5885714 C39.4685979,24.6394913 33.6956576,25.9044778 29.8754458,29.8088057 C26.055234,33.7131336 24.916261,39.5122518 26.976,44.5714286 L6.85714284,44.5714286 C3.07004742,44.5714286 4.63785428e-16,41.5013812 0,37.7142857 L0,6.85714284 C-4.63785428e-16,3.07004742 3.07004742,6.95678143e-16 6.85714284,0 L37.7142857,0 C41.5013812,2.31892714e-16 44.5714286,3.07004742 44.5714286,6.85714284 L44.5714286,26.5885714 Z" id="Shape" fill="#5E9BEF" fill-rule="nonzero"></path>
            <path d="M30.1234286,28.8205714 C31.4022857,28.8205714 32.0091428,28.0594286 32.0091428,26.9177143 C32.0091428,25.4297143 31.1177143,24.8468571 29.8388572,24.8468572 L24.9668572,24.8468572 L24.9668572,22.3645714 L29.9828572,22.3645714 C31.2582857,22.3645714 32.0125714,21.48 32.0125714,20.3382857 C32.0125714,19.1965715 31.2582857,18.3908572 29.9828572,18.3908572 L25.0628572,18.3908572 L30.1371428,13.8377143 C30.5698952,13.470954 30.8194156,12.9324062 30.8194156,12.3651428 C30.8194156,11.7978795 30.5698952,11.2593316 30.1371428,10.8925714 C29.1893702,10.0829282 27.7934869,10.0829282 26.8457143,10.8925714 L22.1348572,15.1028572 L17.4377143,10.9097143 C16.4899417,10.1000711 15.0940583,10.1000711 14.1462857,10.9097143 C13.7123211,11.276478 13.4619874,11.8158091 13.4619874,12.384 C13.4619874,12.9521909 13.7123211,13.491522 14.1462857,13.8582857 L19.2308572,18.3908572 L14.3725714,18.3908572 C13.0971428,18.3908572 12.3428572,19.1965714 12.3428572,20.3382857 C12.3428572,21.48 13.0971429,22.3645715 14.3725714,22.3645714 L19.392,22.3645714 L19.392,24.8468572 L14.3725714,24.8468572 C13.0971428,24.8468572 12.3428572,25.5874286 12.3428572,26.7325714 C12.3428572,27.8708572 13.0971429,28.824 14.3725714,28.824 L19.392,28.824 L19.392,31.8068572 C19.392,33.2297143 20.5782857,34.2857143 22.176,34.2857143 C23.7668572,34.2857143 24.96,33.2297143 24.96,31.8034286 L24.96,28.8205714 L30.1234286,28.8205714 Z" id="Path" fill="#FFFFFF"></path>
            <path d="M38.6845714,29.1222857 C43.8102857,29.1222857 47.9691428,33.3462857 47.9691428,38.5611428 C47.9691428,43.7725714 43.8102857,48 38.6845714,48 C33.5554286,48 29.4,43.776 29.4,38.5611428 C29.4,33.3497143 33.5554286,29.1222857 38.6845714,29.1222857 Z" id="Path" fill="#5E9BEF"></path>
            <path d="M43.4502857,44.5714286 C43.6971429,44.5714286 43.9474286,44.5714286 44.1977143,44.328 C44.437157,44.1072967 44.5733679,43.7964993 44.5733679,43.4708571 C44.5733679,43.145215 44.437157,42.8344176 44.1977143,42.6137143 L40.1862857,38.1154286 L40.1862857,32.0674286 C40.1911753,31.7407641 40.061902,31.4263837 39.8286327,31.1976502 C39.5953634,30.9689167 39.2785055,30.8458407 38.952,30.8571428 C38.6249111,30.8448782 38.3071469,30.9675273 38.073119,31.196369 C37.8390911,31.4252107 37.709353,31.740147 37.7142857,32.0674286 L37.7142857,38.7874286 L42.6994286,44.328 C42.9462857,44.5714286 43.1965714,44.5714286 43.4468572,44.5714286 L43.4502857,44.5714286 Z" id="Path" fill="#FFFFFF"></path>
        </g>
    </g>
</svg>