<?xml version="1.0" encoding="UTF-8"?>
<svg width="48px" height="46px" viewBox="0 0 48 46" version="1.1" xmlns="http://www.w3.org/2000/svg" xmlns:xlink="http://www.w3.org/1999/xlink">
    <!-- Generator: Sketch 49 (51002) - http://www.bohemiancoding.com/sketch -->
    <title>xxxhdpi/特种设备</title>
    <desc>Created with Sketch.</desc>
    <defs></defs>
    <g id="Page-1" stroke="none" stroke-width="1" fill="none" fill-rule="evenodd">
        <g id="特种设备-copy" fill="#F5A623" fill-rule="nonzero">
            <path d="M23.4516996,26.529377 L26.2756364,23.8489785 L23.3899447,21.1237031 L20.5701344,23.7963301 C19.3687811,23.0274962 18.0141268,22.4994353 16.5894071,22.2445937 L16.5894071,18.456916 L12.5140079,18.456916 L12.5140079,22.2465254 C11.0911708,22.5032931 9.73826365,23.0312202 8.53740711,23.7982617 L5.70934387,21.1256348 L2.83185771,23.8509102 L5.64758893,26.5313535 C4.83972044,27.6706972 4.28379243,28.9531677 4.01331225,30.3014668 L0.0140869565,30.3014668 L0.0140869565,34.1593574 L4.01331225,34.1593574 C4.29533597,35.5297891 4.85520949,36.8066035 5.64758893,37.9294707 L2.83185771,40.6020977 L5.70934387,43.327373 L8.53536759,40.6547461 C9.73737608,41.4214652 11.0907335,41.9499543 12.5140079,42.2084141 L12.5140079,45.9960918 L16.5873676,45.9960918 L16.5873676,42.2045508 C18.011434,41.9465991 19.3655626,41.4180797 20.5680474,40.6508828 L23.3879051,43.3196016 L26.2735968,40.5963027 L23.4496601,37.9236758 C24.2523794,36.8047168 24.8060395,35.5278574 25.0839368,34.1515859 L29.0913676,34.1515859 L29.0913676,30.2975586 L25.0859763,30.2975586 C24.8204201,28.9484769 24.2640844,27.6657235 23.4516996,26.529377 Z M14.5537708,36.4362227 C12.1044427,36.4362227 10.1078893,34.551166 10.1078893,32.2255156 C10.1078893,29.8998652 12.1044427,28.0167852 14.5537708,28.0167852 C17.0072253,28.0167852 18.9934862,29.8999102 18.9934862,32.2255156 C18.9934862,34.5511211 17.0093123,36.4362227 14.5537708,36.4362227 Z" id="Shape"></path>
            <path d="M47.0066087,30.2000781 L47.0354466,30.180627 L27.2142451,11.308498 L27.1833676,2.4289707 L17.5918103,0 L16.5708617,0.968830078 L21.6712885,5.7877793 L16.7026245,10.5033633 L11.6063241,5.68055078 L10.5812964,6.64354102 L13.1541344,15.7180293 L22.2764111,15.7472285 L22.2167431,15.7940371 L42.1676206,34.7889824 L42.1943715,34.765623 C43.5250683,36.0024969 45.6595132,35.9929154 46.9777708,34.7441504 C48.2996972,33.4925557 48.3125542,31.4666774 47.0066087,30.200123 L47.0066087,30.2000781 Z M45.7181502,33.5452754 C45.120711,34.0583236 44.2036167,34.0381371 43.6319881,33.4993561 C43.0603595,32.9605751 43.0346138,32.0921002 43.5734229,31.523791 C43.9546945,31.1609383 44.5113953,31.0182949 45.0338216,31.1495932 C45.5562478,31.2808916 45.9650305,31.6661843 46.1061852,32.1603354 C46.2473399,32.6544865 46.0994218,33.1824226 45.7181502,33.5452754 Z" id="Shape"></path>
        </g>
    </g>
</svg>