<?xml version="1.0" encoding="UTF-8"?>
<svg width="47px" height="43px" viewBox="0 0 47 43" version="1.1" xmlns="http://www.w3.org/2000/svg" xmlns:xlink="http://www.w3.org/1999/xlink">
    <!-- Generator: Sketch 49 (51002) - http://www.bohemiancoding.com/sketch -->
    <title>xxxhdpi/离线计划</title>
    <desc>Created with Sketch.</desc>
    <defs></defs>
    <g id="Page-1" stroke="none" stroke-width="1" fill="none" fill-rule="evenodd">
        <g id="离线-copy-2" fill-rule="nonzero">
            <path d="M32.9998463,13 C25.2684946,13 19,19.2684663 19,27 C19,34.7315337 25.2685458,41 32.9998463,41 C40.7313517,41 47,34.7315337 47,27 C47,19.2685175 40.7314029,13 32.9998463,13 Z" id="Shape" fill="#E35656"></path>
            <path d="M20.0631201,39.0123364 L20.0631201,39.3945438 L11.4662095,39.3945438 L11.4662095,42.4865381 L23.0878445,42.4865381 C21.943442,41.4784426 20.9253275,40.3098732 20.0631201,39.0123364 Z" id="Shape" fill="#E35656"></path>
            <path d="M39.8248738,31.0930216 L35.5933632,26.5261603 L39.8248738,21.9604303 C39.8704298,21.9113888 39.9036138,21.8538059 39.9228007,21.7916413 C39.9823536,21.6255675 39.9507948,21.4294012 39.8248738,21.2953429 L37.8246596,19.1380232 C37.7004162,19.0021549 37.5185595,18.9671979 37.3646969,19.0304938 C37.3070312,19.0521015 37.2545554,19.0890382 37.2091567,19.1380232 L32.9775937,23.7046582 L28.7441433,19.1379667 C28.6986922,19.0889817 28.6445389,19.052045 28.5885507,19.0304373 C28.4346881,18.9682161 28.2528314,19.0020984 28.126858,19.1379667 L26.1282165,21.2952864 C26.002348,21.4293447 25.969164,21.6255675 26.0286121,21.7915848 C26.0495814,21.8538059 26.0828703,21.9113322 26.1282165,21.9603738 L30.3616144,26.5261037 L26.1282165,31.0929651 C26.0828703,31.1418935 26.0495814,31.1994763 26.0286121,31.2616409 C25.9709464,31.4276582 26.002348,31.623881 26.1282165,31.7579393 L28.126858,33.9154852 C28.2527789,34.0511273 28.4346881,34.0860842 28.5885507,34.0230147 C28.6444864,34.0011242 28.6986922,33.9644137 28.7441433,33.9154852 L32.9775412,29.3486239 L37.2091043,33.9154852 C37.2545029,33.9644137 37.3069787,34.0011807 37.3646444,34.0230147 C37.5185595,34.0851793 37.7003638,34.0511273 37.8246072,33.9154852 L39.8248214,31.7579393 C39.9507423,31.623881 39.9823012,31.4276016 39.9227482,31.2616409 C39.9036138,31.1995328 39.8704297,31.1419501 39.8248738,31.0930216 Z" id="Shape" fill="#FFFFFF"></path>
            <path d="M17.0119219,30.1185611 L5.21073687,30.1185611 L5.21073687,5.43911528 L40.6466897,5.43911528 L40.6466897,12.2004027 C42.6226319,13.1902843 44.3886708,14.5849427 45.8536947,16.2860685 L45.8536947,0.0470320754 L0.00373191035,0.0470320754 L0.00373191035,35.3409503 L18.1818546,35.3409503 C17.562682,33.7064012 17.160018,31.951935 17.0119219,30.1185611 Z" id="Shape" fill="#E35656"></path>
        </g>
    </g>
</svg>